HIERARCHY
ROOT Hips
{
	OFFSET	0.00	0.00	0.00
	CHANNELS 6 Xposition Yposition Zposition Zrotation Xrotation Yrotation
	JOINT LeftUpLeg
	{
		OFFSET	 0.126116	-0.014019	-0.065224
		CHANNELS 3 Zrotation Xrotation Yrotation
		JOINT LeftLeg
		{
			OFFSET	 0.000000	 0.000000	 0.569914
			CHANNELS 3 Zrotation Xrotation Yrotation
			JOINT LeftFoot
			{
				OFFSET	 0.000000	 0.000000	 0.544423
				CHANNELS 3 Zrotation Xrotation Yrotation
				JOINT LeftToeBase
				{
					OFFSET	 0.000000	 0.000000	 0.207117
					CHANNELS 3 Zrotation Xrotation Yrotation
					End Site
					{
						OFFSET	 0.000000	 0.000000	 0.207117
					}
				}
			}
		}
	}
	JOINT RightUpLeg
	{
		OFFSET	-0.124023	-0.008373	-0.065224
		CHANNELS 3 Zrotation Xrotation Yrotation
		JOINT RightLeg
		{
			OFFSET	 0.000000	 0.000000	 0.570047
			CHANNELS 3 Zrotation Xrotation Yrotation
			JOINT RightFoot
			{
				OFFSET	 0.000000	 0.000000	 0.544354
				CHANNELS 3 Zrotation Xrotation Yrotation
				JOINT RightToeBase
				{
					OFFSET	 0.000000	 0.000000	 0.207540
					CHANNELS 3 Zrotation Xrotation Yrotation
					End Site
					{
						OFFSET	 0.000000	 0.000000	 0.207540
					}
				}
			}
		}
	}
	JOINT Spine
	{
		OFFSET	 0.000184	-0.007763	 0.117403
		CHANNELS 3 Zrotation Xrotation Yrotation
		JOINT Spine1
		{
			OFFSET	 0.000000	 0.000000	 0.137269
			CHANNELS 3 Zrotation Xrotation Yrotation
			JOINT Spine2
			{
				OFFSET	 0.000000	 0.000000	 0.156879
				CHANNELS 3 Zrotation Xrotation Yrotation
				JOINT LeftShoulder
				{
					OFFSET	 0.080501	-0.002496	 0.160144
					CHANNELS 3 Zrotation Xrotation Yrotation
					JOINT LeftArm
					{
						OFFSET	 0.000000	 0.000000	 0.164363
						CHANNELS 3 Zrotation Xrotation Yrotation
						JOINT LeftForeArm
						{
							OFFSET	 0.000000	 0.000000	 0.364576
							CHANNELS 3 Zrotation Xrotation Yrotation
							JOINT LeftHand
							{
								OFFSET	 0.000000	 0.000000	 0.360812
								CHANNELS 3 Zrotation Xrotation Yrotation
								JOINT LeftHandIndex1
								{
									OFFSET	 0.000000	 0.000000	 0.086006
									CHANNELS 3 Zrotation Xrotation Yrotation
									JOINT LeftHandIndex2
									{
										OFFSET	 0.000000	 0.000000	 0.047237
										CHANNELS 3 Zrotation Xrotation Yrotation
										JOINT LeftHandIndex3
										{
											OFFSET	-0.004284	-0.000551	 0.038165
											CHANNELS 3 Zrotation Xrotation Yrotation
											End Site
											{
												OFFSET	-0.004284	-0.000551	 0.038165
											}
										}
									}
								}
							}
						}
					}
				}
				JOINT Neck
				{
					OFFSET	 0.000000	 0.000000	 0.176489
					CHANNELS 3 Zrotation Xrotation Yrotation
					JOINT Head
					{
						OFFSET	 0.000000	-0.001747	 0.077940
						CHANNELS 3 Zrotation Xrotation Yrotation
						End Site
						{
							OFFSET	 0.000000	-0.001747	 0.077940
						}
					}
				}
				JOINT RightShoulder
				{
					OFFSET	-0.080363	 0.000306	 0.159706
					CHANNELS 3 Zrotation Xrotation Yrotation
					JOINT RightArm
					{
						OFFSET	 0.000000	 0.000000	 0.164196
						CHANNELS 3 Zrotation Xrotation Yrotation
						JOINT RightForeArm
						{
							OFFSET	 0.000000	 0.000000	 0.365611
							CHANNELS 3 Zrotation Xrotation Yrotation
							JOINT RightHand
							{
								OFFSET	 0.000000	 0.000000	 0.360648
								CHANNELS 3 Zrotation Xrotation Yrotation
								JOINT RightHandIndex1
								{
									OFFSET	 0.000000	 0.000000	 0.069977
									CHANNELS 3 Zrotation Xrotation Yrotation
									JOINT RightHandIndex2
									{
										OFFSET	 0.000000	 0.000000	 0.052305
										CHANNELS 3 Zrotation Xrotation Yrotation
										JOINT RightHandIndex3
										{
											OFFSET	 0.009002	-0.000782	 0.042196
											CHANNELS 3 Zrotation Xrotation Yrotation
											End Site
											{
												OFFSET	 0.009002	-0.000782	 0.042196
											}
										}
									}
								}
							}
						}
					}
				}
			}
		}
	}
}
MOTION
Frames:    11
Frame Time: 0.03333334
-0.698317	 0.067815	 1.273242	 169.603600	-9.868195	-1.467753	 10.762240	 6.437911	 177.134000	-1.891276	-26.512930	-1.498989	-54.683130	 75.803820	 45.664970	-2.385833	 28.452760	 0.000004	-38.207660	 6.980287	-161.012100	 8.795730	-13.802670	 2.167956	 20.803720	 71.896030	-23.373010	 2.384659	 28.388700	-0.000001	 54.829780	 6.749116	-12.617190	 6.549571	 4.387804	-1.777137	 2.016496	 4.963652	 2.072393	-91.776180	 78.527420	-180.000000	-0.493034	 51.447160	-41.428490	-39.070080	 62.475610	-73.397790	 29.422310	-56.032970	 40.177970	-4.130354	 21.526190	 0.991307	-5.167926	 0.731697	 3.519349	-1.378229	 35.397820	-2.634230	 14.578250	 5.860549	-2.667771	 6.579113	-13.537580	-2.817208	 89.782200	 78.203830	 179.999900	-51.373480	 1.146054	 85.660090	-31.266210	 15.047520	 165.170800	-52.308290	-18.970590	-24.953160	 5.716295	 19.173350	-3.684826	 5.027458	 0.246833	-9.377971	-2.350882	 35.473990	 5.254307
-0.698053	 0.067688	 1.272872	 169.248800	-9.922847	-1.177074	 10.562730	 6.502206	 176.895100	-1.759767	-26.641320	-1.446581	-55.169410	 75.692780	 46.070650	-2.385833	 28.452760	 0.000004	-38.484540	 7.013426	-161.129100	 8.932622	-13.914540	 2.218894	 20.453080	 71.977450	-23.155260	 2.384659	 28.388700	-0.000001	 55.632640	 6.524816	-13.391830	 7.038033	 4.468677	-2.687940	 1.893500	 4.575223	 3.460501	-91.776160	 78.527380	 180.000000	-5.147508	 51.191100	-32.557000	-19.172670	 64.577870	-95.655170	 29.151090	-56.144500	 40.178860	-4.130354	 21.526190	 0.991307	-5.167926	 0.731697	 3.519349	-1.378229	 35.397820	-2.634230	 14.759750	 5.380921	-3.372375	 6.441242	-13.824590	-4.050944	 89.782170	 78.203830	 179.999900	-52.143970	 0.405431	 85.625030	-30.503690	 15.039110	 164.552600	-54.249050	-18.637580	-24.282020	 5.716295	 19.173350	-3.684826	 5.027458	 0.246833	-9.377971	-2.350882	 35.473990	 5.254307
-0.697307	 0.067567	 1.272391	 168.966100	-9.820948	-0.915764	 10.257070	 6.362621	 176.816600	-1.625535	-26.779330	-1.392918	-55.590980	 75.732800	 46.407110	-2.385833	 28.452760	 0.000004	-38.764640	 6.793486	-161.289400	 9.081467	-14.133070	 2.290230	 20.232310	 72.034040	-23.033510	 2.384659	 28.388700	-0.000001	 56.382430	 5.926351	-13.931710	 7.540926	 4.916484	-3.211435	 1.835241	 3.976208	 4.226273	-91.776210	 78.527400	-180.000000	-10.329800	 49.161870	-30.132660	-15.636310	 64.658670	-99.616540	 28.930740	-56.323490	 40.260110	-4.130354	 21.526190	 0.991307	-5.167926	 0.731697	 3.519349	-1.378229	 35.397820	-2.634230	 14.909820	 5.163597	-3.920800	 6.326180	-14.381500	-4.760015	 89.782060	 78.203870	-180.000000	-52.567480	-0.399723	 85.577530	-29.662380	 14.993100	 163.891900	-56.317280	-18.152490	-23.703720	 5.716295	 19.173350	-3.684826	 5.027458	 0.246833	-9.377971	-2.350882	 35.473990	 5.254307
-0.696114	 0.067414	 1.271834	 168.789800	-9.551207	-0.716592	 9.892152	 5.971549	 176.939700	-1.506010	-26.948890	-1.346783	-55.823290	 75.944430	 46.556130	-2.385833	 28.452760	 0.000004	-38.999880	 6.279734	-161.480700	 9.225673	-14.466140	 2.379965	 20.179690	 72.037310	-23.035990	 2.384659	 28.388700	-0.000001	 56.968250	 4.994222	-14.129020	 7.994815	 5.782551	-3.245853	 1.837884	 3.180564	 4.254976	-91.776120	 78.527380	 180.000000	-13.832040	 45.456500	-37.545010	-35.666370	 63.414430	-77.418510	 28.778700	-56.543310	 40.403140	-4.130354	 21.526190	 0.991307	-5.167926	 0.731697	 3.519349	-1.378229	 35.397820	-2.634230	 15.016530	 5.225337	-4.256213	 6.252685	-15.134670	-4.882589	 89.782100	 78.203900	-180.000000	-52.632820	-1.123474	 85.493050	-28.857770	 14.876470	 163.317200	-58.251750	-17.550510	-23.197480	 5.716295	 19.173350	-3.684826	 5.027458	 0.246833	-9.377971	-2.350882	 35.473990	 5.254307
-0.694917	 0.067239	 1.271321	 168.654100	-9.228206	-0.626103	 9.578671	 5.532100	 177.192000	-1.408607	-27.063280	-1.307662	-55.532140	 76.181630	 46.183930	-2.385833	 28.452760	 0.000004	-39.144700	 5.602859	-161.627900	 9.353185	-14.909190	 2.484812	 20.280460	 72.072590	-23.172130	 2.384659	 28.388700	-0.000001	 57.454580	 4.025700	-14.196540	 8.381204	 6.780028	-2.956808	 1.850730	 2.358831	 4.018371	-91.776130	 78.527350	 180.000000	-17.331120	 41.504540	-49.283010	-62.027070	 53.773050	-46.841970	 28.628760	-56.695250	 40.515240	-4.130354	 21.526190	 0.991307	-5.167926	 0.731697	 3.519349	-1.378229	 35.397820	-2.634230	 15.085190	 5.390462	-4.507722	 6.209206	-15.897310	-4.898230	 89.782110	 78.203830	 180.000000	-52.457780	-1.764640	 85.441560	-28.063170	 14.706380	 162.784700	-60.004080	-16.885830	-22.705780	 5.716295	 19.173350	-3.684826	 5.027458	 0.246833	-9.377971	-2.350882	 35.473990	 5.254307
-0.693588	 0.067108	 1.270795	 168.516300	-8.811270	-0.601734	 9.236862	 5.026357	 177.530000	-1.308840	-27.124690	-1.264821	-54.937520	 76.438060	 45.508340	-2.385833	 28.452760	 0.000004	-39.263320	 4.753853	-161.788000	 9.491162	-15.478240	 2.615048	 20.516920	 72.180440	-23.425240	 2.384659	 28.388700	-0.000001	 57.991920	 2.855169	-14.183490	 8.829697	 7.951644	-2.534003	 1.853506	 1.434924	 3.633994	-91.776170	 78.527380	 180.000000	-25.305510	 36.946950	-68.518600	-81.194610	 20.320950	-16.737710	 28.448930	-56.821610	 40.622560	-4.130354	 21.526190	 0.991307	-5.167926	 0.731697	 3.519349	-1.378229	 35.397820	-2.634230	 15.138780	 5.664273	-4.743409	 6.181464	-16.809250	-4.835653	 89.782120	 78.203900	 180.000000	-52.016770	-2.485570	 85.513700	-27.118210	 14.491370	 162.147000	-61.987850	-15.918000	-22.255380	 5.716295	 19.173350	-3.684826	 5.027458	 0.246833	-9.377971	-2.350882	 35.473990	 5.254307
-0.692399	 0.067103	 1.270382	 168.352000	-8.387722	-0.583082	 8.858978	 4.590510	 177.788800	-1.195874	-27.118790	-1.212995	-54.461900	 76.593770	 44.971040	-2.385833	 28.452760	 0.000004	-39.390530	 3.970537	-161.988600	 9.639336	-16.063080	 2.753288	 20.695610	 72.380830	-23.603780	 2.384659	 28.388700	-0.000001	 58.626350	 1.660832	-14.191240	 9.378972	 8.939176	-2.327383	 1.823947	 0.624751	 3.429104	-91.776140	 78.527360	 180.000000	-29.175720	 35.460140	-74.630360	-82.408100	 11.040900	-11.956090	 28.267530	-56.803410	 40.685910	-4.130354	 21.526190	 0.991307	-5.167926	 0.731697	 3.519349	-1.378229	 35.397820	-2.634230	 15.160160	 5.829383	-4.957197	 6.144696	-17.632600	-4.892694	 89.782140	 78.203890	 180.000000	-51.350200	-3.212685	 85.880080	-26.045390	 14.271150	 161.375000	-64.109650	-14.562330	-21.933850	 5.716295	 19.173350	-3.684826	 5.027458	 0.246833	-9.377971	-2.350882	 35.473990	 5.254307
-0.691261	 0.067169	 1.270075	 168.179600	-7.964983	-0.569914	 8.465523	 4.205877	 177.971300	-1.077328	-27.054780	-1.156349	-54.057700	 76.653210	 44.526970	-2.385833	 28.452760	 0.000004	-39.514570	 3.235991	-162.229700	 9.792846	-16.690760	 2.903022	 20.850530	 72.675030	-23.741690	 2.384659	 28.388700	-0.000001	 59.316700	 0.468080	-14.191700	 9.995394	 9.749639	-2.216771	 1.775539	-0.062200	 3.310805	-91.776170	 78.527380	 180.000000	-31.633780	 34.497340	-75.964290	-82.301910	 10.935640	-11.929330	 28.095480	-56.670970	 40.712140	-4.130354	 21.526190	 0.991307	-5.167926	 0.731697	 3.519349	-1.378229	 35.397820	-2.634230	 15.155080	 5.903119	-5.144836	 6.100014	-18.352300	-5.041318	 89.782150	 78.203870	 180.000000	-50.458890	-3.798490	 86.559540	-24.923450	 14.030880	 160.549300	-66.128400	-12.804210	-21.697690	 5.716295	 19.173350	-3.684826	 5.027458	 0.246833	-9.377971	-2.350882	 35.473990	 5.254307
-0.690349	 0.067341	 1.270016	 168.033500	-7.608569	-0.486498	 8.027383	 3.899761	 178.043900	-0.948166	-26.999270	-1.095442	-54.350300	 76.756320	 44.768670	-2.385833	 28.452760	 0.000004	-39.704020	 2.772437	-162.490500	 9.924475	-17.035190	 3.000755	 20.978860	 72.844830	-23.849000	 2.384659	 28.388700	-0.000001	 59.941600	-0.646797	-14.141340	 10.621190	 10.386330	-2.374734	 1.712755	-0.536858	 3.225231	-91.776180	 78.527420	 180.000000	-34.035870	 33.887830	-76.694090	-82.155270	 10.842880	-11.906740	 28.000780	-56.570060	 40.807770	-4.130354	 21.526190	 0.991307	-5.167926	 0.731697	 3.519349	-1.378229	 35.397820	-2.634230	 15.088060	 5.756411	-5.185220	 6.034042	-18.679410	-5.177519	 89.782100	 78.203850	-180.000000	-49.493660	-4.230758	 87.337910	-23.922530	 13.846890	 159.760600	-67.886300	-11.007840	-21.527670	 5.716295	 19.173350	-3.684826	 5.027458	 0.246833	-9.377971	-2.350882	 35.473990	 5.254307
-0.689747	 0.067697	 1.270194	 167.872300	-7.253481	-0.319641	 7.469418	 3.618360	 178.069600	-0.784959	-26.969320	-1.020179	-55.307780	 76.962970	 45.640430	-2.385833	 28.452760	 0.000004	-40.001000	 2.501067	-162.773700	 10.057210	-17.079110	 3.048376	 21.031660	 72.847750	-23.886730	 2.384659	 28.388700	-0.000001	 60.619060	-1.878680	-14.079840	 11.363430	 11.039820	-2.894740	 1.631304	-0.972717	 3.235760	-91.776250	 78.527400	-179.999900	-36.609290	 33.517280	-77.232050	-81.944440	 10.736940	-11.881370	 27.937640	-56.468540	 40.970540	-4.130354	 21.526190	 0.991307	-5.167926	 0.731697	 3.519349	-1.378229	 35.397820	-2.634230	 14.960350	 5.411857	-5.123450	 5.939300	-18.776810	-5.333214	 89.782100	 78.203850	 180.000000	-48.369010	-4.734957	 88.212150	-22.784250	 13.720550	 158.743100	-69.823600	-9.006411	-21.194450	 5.716295	 19.173350	-3.684826	 5.027458	 0.246833	-9.377971	-2.350882	 35.473990	 5.254307
-0.689883	 0.068235	 1.270693	 167.724000	-6.982285	-0.206578	 7.054820	 3.518254	 178.116100	-0.659617	-26.880650	-0.960353	-56.058410	 77.049480	 46.373480	-2.385833	 28.452760	 0.000004	-40.332890	 2.469812	-162.890300	 10.172070	-16.749140	 3.025384	 20.937100	 72.707950	-23.770180	 2.384659	 28.388700	-0.000001	 61.293660	-2.966431	-14.016000	 12.107520	 11.722440	-3.757916	 1.504646	-1.478607	 3.482146	-91.776170	 78.527400	 180.000000	-39.048860	 32.958690	-77.406270	-81.710450	 10.633440	-11.857330	 27.929660	-56.179580	 41.070320	-4.130354	 21.526190	 0.991307	-5.167926	 0.731697	 3.519349	-1.378229	 35.397820	-2.634230	 14.789250	 5.363935	-5.029920	 5.797723	-19.293690	-5.676053	 89.782080	 78.203850	-180.000000	-47.189470	-5.461538	 88.909550	-21.614290	 13.676460	 157.555600	-71.920160	-7.080219	-20.725250	 5.716295	 19.173350	-3.684826	 5.027458	 0.246833	-9.377971	-2.350882	 35.473990	 5.254307
